<?xml version="1.0" standalone="no"?>
<!DOCTYPE svg PUBLIC "-//W3C//DTD SVG 1.1//EN" "http://www.w3.org/Graphics/SVG/1.1/DTD/svg11.dtd">
<svg xmlns="http://www.w3.org/2000/svg" xmlns:xlink="http://www.w3.org/1999/xlink" version="1.1" id="Layer_1" x="0px" y="0px" viewBox="0 0 1080.1 737" style="enable-background:new 0 0 1080.1 737;" xml:space="preserve" width="1080.0999755859375" height="737">
<style type="text/css">
	.st0{fill:#12515D;}
	.st1{fill:#239FB7;}
	.st2{fill:#1D8195;}
	.st3{fill:#FF9619;}
	.st4{fill:#A54C0D;}
	.st5{fill:#FF7A14;}
</style>
<g>
	<polygon class="st0" points="147.3,226.8 245.5,283.5 245.5,340.2 196.4,368.5 196.4,311.8 147.3,283.5  "/>
	<polygon class="st1" points="245.5,283.5 147.3,226.8 245.5,170.1 294.6,198.4 294.6,255.1  "/>
	<polygon class="st2" points="245.5,283.5 294.6,255.1 343.7,283.5 343.7,340.2 294.6,368.5 245.5,340.2  "/>
	<polygon class="st1" points="0,311.8 98.2,255.1 147.3,283.5 196.4,311.8 98.2,368.5  "/>
	<polygon class="st0" points="0,311.8 98.2,368.5 98.2,481.9 0,425.2  "/>
	<polygon class="st2" points="98.2,368.5 196.4,311.8 196.4,368.5 147.3,396.9 147.3,453.5 98.2,481.9  "/>
	<polygon class="st3" points="294.6,141.7 392.8,85 441.9,113.4 491,141.7 392.8,198.4  "/>
	<polygon class="st4" points="392.8,311.8 343.7,283.5 294.6,255.1 294.6,198.4 294.6,141.7 392.8,198.4  "/>
	<polygon class="st5" points="441.9,283.5 392.8,311.8 392.8,198.4 491,141.7 491,198.4 491,255.1  "/>
	<polygon class="st0" points="491,198.4 491,141.7 441.9,113.4 441.9,56.7 540.1,113.4 540.1,170.1  "/>
	<polygon class="st1" points="540.1,113.4 441.9,56.7 540.1,0 638.3,56.7  "/>
	<polygon class="st2" points="540.1,113.4 638.3,56.7 638.3,113.4 589.2,141.7 589.2,198.4 540.1,170.1  "/>
	<polygon class="st1" points="491,198.4 540.1,170.1 589.2,198.4 638.3,226.8 540.1,283.5 491,255.1  "/>
	<polygon class="st0" points="491,255.1 540.1,283.5 540.1,340.2 491,368.5 441.9,340.2 441.9,283.5  "/>
	<polygon class="st2" points="540.1,283.5 638.3,226.8 638.3,283.5 589.2,311.8 589.2,368.5 540.1,340.2  "/>
	<polygon class="st0" points="638.3,283.5 638.3,226.8 589.2,198.4 589.2,141.7 687.4,198.4 687.4,255.1  "/>
	<polygon class="st0" points="245.5,566.9 147.3,510.2 147.3,453.5 147.3,396.9 245.5,453.5  "/>
	<polygon class="st1" points="245.5,453.5 147.3,396.9 196.4,368.5 245.5,340.2 294.6,368.5 343.7,396.9  "/>
	<polygon class="st2" points="245.5,453.5 343.7,396.9 343.7,453.5 294.6,481.9 294.6,538.6 245.5,566.9  "/>
	<polygon class="st1" points="687.4,198.4 589.2,141.7 638.3,113.4 687.4,85 785.6,141.7  "/>
	<polygon class="st2" points="687.4,198.4 785.6,141.7 785.6,198.4 736.5,226.8 736.5,283.5 687.4,255.1  "/>
	<polygon class="st0" points="392.8,652 294.6,595.3 294.6,538.6 294.6,481.9 392.8,538.6  "/>
	<polygon class="st1" points="392.8,538.6 294.6,481.9 343.7,453.5 392.8,425.2 441.9,453.5 491,481.9  "/>
	<polygon class="st2" points="392.8,538.6 491,481.9 491,538.6 441.9,566.9 441.9,623.6 392.8,652  "/>
	<polygon class="st0" points="491,538.6 491,481.9 441.9,453.5 441.9,396.9 540.1,453.5 540.1,510.2  "/>
	<polygon class="st1" points="540.1,453.5 441.9,396.9 491,368.5 540.1,340.2 589.2,368.5 638.3,396.9  "/>
	<polygon class="st2" points="540.1,453.5 638.3,396.9 638.3,453.5 589.2,481.9 589.2,538.6 540.1,510.2  "/>
	<polygon class="st0" points="638.3,453.5 638.3,396.9 589.2,368.5 589.2,311.8 687.4,368.5 687.4,425.2  "/>
	<polygon class="st1" points="687.4,368.5 589.2,311.8 638.3,283.5 687.4,255.1 736.5,283.5 785.6,311.8  "/>
	<polygon class="st2" points="687.4,368.5 785.6,311.8 785.6,368.5 736.5,396.9 736.5,453.5 687.4,425.2  "/>
	<polygon class="st0" points="785.6,368.5 785.6,311.8 736.5,283.5 736.5,226.8 834.7,283.5 834.7,340.2  "/>
	<polygon class="st1" points="834.7,283.5 736.5,226.8 785.6,198.4 834.7,170.1 932.9,226.8  "/>
	<polygon class="st2" points="834.7,283.5 932.9,226.8 932.9,283.5 883.8,311.8 883.8,368.5 834.7,340.2  "/>
	<polygon class="st0" points="540.1,737 441.9,680.3 441.9,623.6 441.9,566.9 540.1,623.6  "/>
	<polygon class="st1" points="540.1,623.6 441.9,566.9 491,538.6 540.1,510.2 589.2,538.6 638.3,566.9  "/>
	<polygon class="st2" points="540.1,623.6 638.3,566.9 638.3,623.6 638.3,680.3 540.1,737  "/>
	<polygon class="st0" points="687.4,652 638.3,623.6 638.3,566.9 589.2,538.6 589.2,481.9 687.4,538.6  "/>
	<polygon class="st1" points="687.4,538.6 589.2,481.9 638.3,453.5 687.4,425.2 736.5,453.5 785.6,481.9  "/>
	<polygon class="st2" points="687.4,538.6 785.6,481.9 785.6,538.6 785.6,595.3 687.4,652  "/>
	<polygon class="st0" points="834.7,566.9 785.6,538.6 785.6,481.9 736.5,453.5 736.5,396.9 834.7,453.5  "/>
	<polygon class="st1" points="834.7,453.5 736.5,396.9 785.6,368.5 834.7,340.2 883.8,368.5 932.9,396.9  "/>
	<polygon class="st2" points="834.7,453.5 932.9,396.9 932.9,453.5 932.9,510.2 834.7,566.9  "/>
	<polygon class="st1" points="982,255.1 1080.1,311.8 982,368.5 883.8,311.8 932.9,283.5  "/>
	<polygon class="st0" points="883.8,311.8 982,368.5 982,481.9 932.9,453.5 932.9,396.9 883.8,368.5  "/>
	<polygon class="st2" points="982,368.5 1080.1,311.8 1080.1,425.2 982,481.9  "/>
</g>
</svg>